<?xml version="1.0" encoding="UTF-8" standalone="no"?>
<!DOCTYPE svg PUBLIC "-//W3C//DTD SVG 1.1//EN" "http://www.w3.org/Graphics/SVG/1.1/DTD/svg11.dtd">
<svg width="500" height="500" viewBox="0 0 500 500" version="1.1" xmlns="http://www.w3.org/2000/svg" xmlns:xlink="http://www.w3.org/1999/xlink" xml:space="preserve" xmlns:serif="http://www.serif.com/" style="fill-rule:evenodd;clip-rule:evenodd;stroke-linejoin:round;stroke-miterlimit:2;">
    <g transform="matrix(0.475285,0,0,0.475285,0.237643,0.237643)">
        <rect x="-0.5" y="0.5" width="1051" height="1051" style="fill:rgb(239,218,79);"/>
    </g>
    <g transform="matrix(0.475285,0,0,0.475285,0.237643,0.237643)">
        <path d="M-0.5,0.5L-0.5,-0.5L1051.5,-0.5L1051.5,1051.5L1050.5,1051.5L1050.5,0.5L-0.5,0.5Z" style="fill:rgb(253,250,236);"/>
    </g>
    <g transform="matrix(0.475285,0,0,0.475285,0.237643,0.237643)">
        <path d="M778.5,477.5C811.73,474.65 843.73,479.484 874.5,492C902.307,506.64 923.64,527.807 938.5,555.5C913.507,572.332 888.173,588.665 862.5,604.5C855.156,592.65 846.156,582.15 835.5,573C814.334,560.559 792.667,559.559 770.5,570C751.581,584.105 746.414,602.272 755,624.5C757.969,631.475 762.469,637.308 768.5,642C776.336,647.755 784.669,652.755 793.5,657C823.309,669.237 852.643,682.57 881.5,697C909.717,711.032 932.55,731.199 950,757.5C966.836,789.682 971.836,823.682 965,859.5C956.468,899.693 933.968,929.193 897.5,948C866.784,962.319 834.45,968.819 800.5,967.5C749.07,968.637 703.737,952.803 664.5,920C647.906,904.916 634.573,887.416 624.5,867.5C650.881,851.951 677.381,836.617 704,821.5C709.308,827.825 714.308,834.492 719,841.5C751.488,878.477 791.321,889.311 838.5,874C862.596,863.645 872.43,845.478 868,819.5C862.454,804.617 852.621,793.45 838.5,786C805.918,770.806 773.251,755.806 740.5,741C665.311,701.498 639.478,640.665 663,558.5C679.347,520.892 707.18,496.059 746.5,484C757.193,481.278 767.859,479.112 778.5,477.5Z" style="fill:rgb(50,51,48);"/>
    </g>
    <g transform="matrix(0.475285,0,0,0.475285,0.237643,0.237643)">
        <path d="M514.5,483.5C553.388,480.67 576.221,498.337 583,536.5C584.833,556.514 579.833,574.514 568,590.5C552.683,605.828 534.183,611.995 512.5,609C486.449,603.949 470.615,588.449 465,562.5C458.762,532.513 467.929,508.68 492.5,491C499.445,486.963 506.779,484.463 514.5,483.5Z" style="fill:rgb(50,51,48);"/>
    </g>
    <g transform="matrix(0.475285,0,0,0.475285,0.237643,0.237643)">
        <path d="M382.5,485.5C371.986,485.172 361.653,485.506 351.5,486.5C350.957,486.44 350.624,486.107 350.5,485.5C361.326,484.177 371.993,484.177 382.5,485.5Z" style="fill:rgb(166,152,65);"/>
    </g>
    <g transform="matrix(0.475285,0,0,0.475285,0.237643,0.237643)">
        <path d="M252.5,485.5C273.533,485.097 294.533,485.597 315.5,487C337.976,493.455 344.476,507.288 335,528.5C330.137,534.682 323.97,539.015 316.5,541.5C342.903,548.979 350.403,565.313 339,590.5C329.224,601.797 316.724,607.297 301.5,607C285.17,607.5 268.837,607.667 252.5,607.5L252.5,485.5Z" style="fill:rgb(51,51,48);"/>
    </g>
    <g transform="matrix(0.475285,0,0,0.475285,0.237643,0.237643)">
        <path d="M382.5,485.5C390.552,503.604 398.052,521.938 405,540.5C411.658,522.18 419.158,504.18 427.5,486.5C437.149,485.335 446.816,485.168 456.5,486C443.539,511.422 430.705,536.922 418,562.5C417.5,577.496 417.333,592.496 417.5,607.5L389.5,607.5C389.667,592.496 389.5,577.496 389,562.5C376.59,537.093 364.09,511.76 351.5,486.5C361.653,485.506 371.986,485.172 382.5,485.5Z" style="fill:rgb(51,52,48);"/>
    </g>
    <g transform="matrix(0.475285,0,0,0.475285,0.237643,0.237643)">
        <path d="M280.5,505.5C288.713,504.85 296.713,505.684 304.5,508C308.449,510.399 310.449,513.899 310.5,518.5C310.507,527.324 306.174,532.491 297.5,534C291.843,534.499 286.176,534.666 280.5,534.5L280.5,505.5Z" style="fill:rgb(237,216,78);"/>
    </g>
    <g transform="matrix(0.475285,0,0,0.475285,0.237643,1.25611)">
        <path d="M513.071,530.557C517.836,521.514 533.992,521.551 538.5,530.6C541.472,536.566 543.233,550.492 538.514,559.557C534.106,568.027 517.202,568.362 512.571,559.757C507.31,549.981 509.751,536.861 513.071,530.557Z" style="fill:rgb(235,214,78);"/>
    </g>
    <g transform="matrix(0.475285,0,0,0.475285,0.237643,0.237643)">
        <path d="M300.5,555.5L280.5,555.5L280.5,587.5C279.505,576.679 279.172,565.679 279.5,554.5C286.687,554.175 293.687,554.509 300.5,555.5Z" style="fill:rgb(141,131,61);"/>
    </g>
    <g transform="matrix(0.475285,0,0,0.475285,0.237643,0.237643)">
        <path d="M300.5,555.5C313.712,557.912 318.212,565.578 314,578.5C311.408,581.762 308.241,584.262 304.5,586C296.571,587.363 288.571,587.863 280.5,587.5L280.5,555.5L300.5,555.5Z" style="fill:rgb(237,216,78);"/>
    </g>
    <g transform="matrix(0.475285,0,0,0.475285,0.237643,0.237643)">
        <path d="M472.5,630.5L570.5,630.5C570.667,698.834 570.5,767.167 570,835.5C565.013,914.012 523.513,957.845 445.5,967C399.115,972.73 357.115,962.064 319.5,935C301.001,919.505 286.668,900.838 276.5,879C276.759,877.739 277.426,876.739 278.5,876C304.167,860.5 329.833,845 355.5,829.5C361.923,840.684 369.09,851.351 377,861.5C394.416,879.065 415.25,884.565 439.5,878C456.689,872.806 466.856,861.306 470,843.5C470.813,838.185 471.479,832.852 472,827.5C472.5,761.834 472.667,696.168 472.5,630.5Z" style="fill:rgb(50,51,48);"/>
    </g>
</svg>
