<svg xmlns="http://www.w3.org/2000/svg" xml:space="preserve" viewBox="0 0 50 50">
  <title>Eventer Icon</title>
    <g transform="matrix(1.1112 -.00705 -.0169 1.17428 53.79 11.15)">
    <circle cx="-25.539" cy="17.705" r="4.356"/>
      <path d="M-41.566 3.117c-7.804 8.108-7.495 20.968-.16 29.336 1.06 1.028 2.603-.8 1.68-1.838-6.714-8.107-6.011-17.812.08-25.58.775-.921-.452-2.655-1.6-1.918z"/>
      <path d="M-37.497 7.232c-5.43 5.874-5.214 15.193-.111 21.257.737.744 2.487-.84 1.844-1.593-4.67-5.874-4.39-12.334-.152-17.962.815-.737-.502-2.307-1.581-1.702z"/>
      <path d="M-33.344 11.294c-3.169 3.664-3.356 8.956-.064 13.26.623.68 2.704-.834 1.91-1.775-2.727-3.664-2.25-6.444-.142-10.215.725-.709-.85-1.871-1.704-1.27zM-9.68 3.117c7.805 8.108 7.496 20.968.16 29.336-1.06 1.028-2.602-.8-1.679-1.838 6.714-8.107 6.01-17.812-.08-25.58-.776-.921.451-2.655 1.6-1.918z"/>
      <path d="M-13.748 7.232c5.43 5.874 5.214 15.193.11 21.257-.737.744-2.486-.84-1.844-1.593 4.67-5.874 4.39-12.334.153-17.962-.815-.737.502-2.307 1.58-1.702z"/>
      <path d="M-17.902 11.294c3.17 3.664 3.356 8.956.065 13.26-.623.68-2.704-.834-1.91-1.775 2.727-3.664 2.25-6.444.142-10.215-.725-.709.85-1.871 1.703-1.27z"/>
  </g>
</svg>