<svg xmlns="http://www.w3.org/2000/svg" xml:space="preserve" viewBox="0 0 50 50">
  <title>Modal Icon</title>
    <g stroke-width=".617">
    <path d="M11.145 17.337c-4.181 0-7.547 3.008-7.547 6.744v18.477c0 3.736 3.366 6.744 7.547 6.744H31.37c4.181 0 7.547-3.008 7.547-6.744V24.995l-4.83 4.281v12.819c0 1.643-1.48 2.967-3.32 2.967h-19.17c-1.84 0-3.32-1.324-3.32-2.967V24.409c0-1.643 1.48-2.967 3.32-2.967h13.804l4.688-4.105z"/>
      <path d="M33.157 9.544c-1.517 0-2.737 1.092-2.737 2.447s1.22 2.447 2.737 2.447h4.97L17.629 32.96c-1.067.964-1.058 2.507.02 3.46 1.079.954 2.806.945 3.873-.019l20.395-18.429-.071 4.117c-.024 1.355 1.177 2.463 2.694 2.484 1.517.021 2.757-1.053 2.78-2.408l.174-10.018c.02-1.153-.847-2.126-2.04-2.404a3.025 3.025 0 0 0-1.084-.199z"/>
  </g>
</svg>