<svg xmlns="http://www.w3.org/2000/svg" xml:space="preserve" viewBox="0 0 50 50">
  <title>Scheduler Icon</title>
    <g stroke="#000" stroke-linecap="round" stroke-linejoin="round">
    <path stroke-width=".013" d="m24.605 1.974.074 12.771c.24.123.479.25.718.387a29.31 29.31 0 0 1 9.075 8.668l8.143-11.76c-.246-.34-.495-.675-.75-1-4.72-6.093-10.917-9.035-17.26-9.066Zm-2.354.123c-6.205.668-12.393 4.078-17.33 10.012l2.94 4.702c4.312-3.456 9.399-4.85 14.701-2.983ZM3.215 14.33c-.34.48-.67.974-.995 1.48-.483.85-.928 1.725-1.34 2.62v6.877c1.42-2.51 3.07-4.75 4.898-6.608Zm41.094.312-8.244 11.77c2.087 3.822 3.605 8.39 4.397 13.783h9.023V27.621c-1.299-4.919-3.007-9.296-5.176-12.979Z"/>
      <path stroke-width="1.1" d="M31.281 17.044 23.387 33.82c-1.934-.157-3.736.996-4.586 2.935-.847 1.94-.577 4.293.686 5.985l-1.972 4.509 3.247 1.879 1.933-4.42c2.014.278 3.937-.882 4.825-2.909.887-2.028.55-4.497-.844-6.193l7.853-16.684zm-7.15 20.018c1.098.635 1.554 2.143 1.019 3.367-.536 1.224-1.86 1.702-2.958 1.066-1.1-.635-1.556-2.143-1.02-3.368.535-1.224 1.86-1.701 2.959-1.065z"/>
  </g>
</svg>