<svg xmlns="http://www.w3.org/2000/svg" xml:space="preserve" viewBox="0 0 50 50">
  <title>Storage Icon</title>
  <path stroke="#000" stroke-linecap="round" stroke-linejoin="round" stroke-width="1.362" d="M24.95 11.088c-12.413 0-20.573 2.288-22.49 5.472 0 .067.007.135.017.202H2.41v26.729h.059c.314 2.955 10.259 5.327 22.48 5.327 12.223 0 22.168-2.372 22.482-5.327h.015V16.762h-.024c.01-.067.017-.135.017-.202-2.364-3.381-10.069-5.472-22.49-5.472zm-.084 1.715c11.119 0 18.015 1.763 20.132 4.614 0 2.548-9.013 4.614-20.132 4.614-11.118 0-20.132-2.066-20.131-4.614 1.716-2.685 9.02-4.615 20.131-4.614Zm-20.08 8.121c13.247 4.366 26.667 4.049 40.23 0v5.5c-9.564 5.636-33.452 4.22-40.23.18Zm0 7.946c13.247 4.365 26.667 3.868 40.23-.18v6.762c-9.564 5.636-33.452 3.95-40.23-.09zm0 8.757c13.247 4.366 26.667 4.14 40.23.09v5.77c-9.564 5.637-33.452 3.95-40.23-.09z"/>
</svg>