<svg xmlns="http://www.w3.org/2000/svg" xml:space="preserve" viewBox="0 0 50 50">
    <title>Toggler Icon</title>
    <path d="M17.285 8.897c-8.749 0-15.841 9.057-15.841 20.229 0 11.172 7.092 20.228 15.841 20.229h16.74c8.75 0 15.842-9.057 15.842-20.23 0-11.171-7.092-20.228-15.841-20.228h-16.74zm1.29 3.151h14.162c7.402 0 13.403 7.485 13.403 16.717s-6.001 16.716-13.403 16.716H18.574c-7.402 0-13.402-7.484-13.402-16.716 0-9.232 6-16.717 13.402-16.717z"/>
    <path d="M35.6 21.821a5.912 7.307 0 0 0-5.911 7.308 5.912 7.307 0 0 0 5.912 7.308 5.912 7.307 0 0 0 5.913-7.308 5.912 7.307 0 0 0-5.913-7.308zm0 3.735a2.89 3.573 0 0 1 2.892 3.573 2.89 3.573 0 0 1-2.891 3.573 2.89 3.573 0 0 1-2.89-3.573 2.89 3.573 0 0 1 2.89-3.573z"/>
</svg>